# xmcd
#
# Track frame offsets:
# 150
# 14580
# 28159
# 44699
# 57949
# 71020
# 86634
# 100501
# 115394
# 128142
# 143131
# 157709
# 171783
# 184890
#
# Disc length: 2647 seconds
#
#
# Revision: 0
# Processed by: cddbd v1.5.1PL2 Copyright (c) Steve Scherf et al.
# Submitted via: FreeRIP 2.945 
#
DISCID=bf0a550e
DTITLE=Frank Aguiar - Sou brasileiro
DYEAR=0006
DGENRE=A Cappella
TTITLE0=Sou Brasileiro
TTITLE1=Eu não vou mais chorar
TTITLE2=Mulher poderosa
TTITLE3=Por que ?
TTITLE4=Morrendo de saudades
TTITLE5=Sou brasileiro
TTITLE6=Gosto de Maçã
TTITLE7=Pense
TTITLE8=Ouça a minha voz
TTITLE9=Tô Sozinho
TTITLE10=A praia
TTITLE11=Vou te excluir do meu orkut
TTITLE12=Dois tum
TTITLE13=Anjinho de luz
EXTD=
EXTT0=
EXTT1=
EXTT2=
EXTT3=
EXTT4=
EXTT5=
EXTT6=
EXTT7=
EXTT8=
EXTT9=
EXTT10=
EXTT11=
EXTT12=
EXTT13=
PLAYORDER=
